<svg width="52" height="52" viewBox="0 0 52 52" fill="none" xmlns="http://www.w3.org/2000/svg">
<path d="M16.6564 4.271H34.5947C41.4283 4.271 46.9806 9.82331 46.9806 16.6569V34.5952C46.9806 37.8801 45.6757 41.0305 43.3529 43.3534C41.0301 45.6762 37.8796 46.9811 34.5947 46.9811H16.6564C9.82282 46.9811 4.27051 41.4288 4.27051 34.5952V16.6569C4.27051 13.372 5.57545 10.2216 7.89826 7.89875C10.2211 5.57594 13.3715 4.271 16.6564 4.271ZM16.2293 8.54201C14.1904 8.54201 12.235 9.35197 10.7932 10.7937C9.35148 12.2355 8.54152 14.1909 8.54152 16.2298V35.0223C8.54152 39.2719 11.9797 42.7101 16.2293 42.7101H35.0218C37.0607 42.7101 39.0162 41.9001 40.4579 40.4584C41.8996 39.0166 42.7096 37.0612 42.7096 35.0223V16.2298C42.7096 11.9802 39.2714 8.54201 35.0218 8.54201H16.2293ZM36.837 11.7453C37.5449 11.7453 38.2239 12.0265 38.7245 12.5271C39.2251 13.0277 39.5064 13.7067 39.5064 14.4146C39.5064 15.1226 39.2251 15.8016 38.7245 16.3022C38.2239 16.8028 37.5449 17.084 36.837 17.084C36.129 17.084 35.45 16.8028 34.9494 16.3022C34.4488 15.8016 34.1676 15.1226 34.1676 14.4146C34.1676 13.7067 34.4488 13.0277 34.9494 12.5271C35.45 12.0265 36.129 11.7453 36.837 11.7453ZM25.6256 14.9485C28.4574 14.9485 31.1733 16.0735 33.1757 18.0759C35.1781 20.0783 36.3031 22.7942 36.3031 25.6261C36.3031 28.4579 35.1781 31.1738 33.1757 33.1762C31.1733 35.1786 28.4574 36.3036 25.6256 36.3036C22.7937 36.3036 20.0778 35.1786 18.0754 33.1762C16.073 31.1738 14.948 28.4579 14.948 25.6261C14.948 22.7942 16.073 20.0783 18.0754 18.0759C20.0778 16.0735 22.7937 14.9485 25.6256 14.9485ZM25.6256 19.2195C23.9265 19.2195 22.2969 19.8945 21.0955 21.096C19.894 22.2974 19.219 23.9269 19.219 25.6261C19.219 27.3252 19.894 28.9547 21.0955 30.1561C22.2969 31.3576 23.9265 32.0326 25.6256 32.0326C27.3247 32.0326 28.9542 31.3576 30.1557 30.1561C31.3571 28.9547 32.0321 27.3252 32.0321 25.6261C32.0321 23.9269 31.3571 22.2974 30.1557 21.096C28.9542 19.8945 27.3247 19.2195 25.6256 19.2195Z" fill="#FFFCF8"/>
</svg>
