<svg width="52" height="52" viewBox="0 0 52 52" fill="none" xmlns="http://www.w3.org/2000/svg">
<path d="M48.4228 11.741C46.7785 12.4884 45.006 12.9796 43.1695 13.2145C45.0487 12.0827 46.5009 10.2888 47.1842 8.13198C45.4118 9.19973 43.4471 9.94716 41.3757 10.3743C39.6886 8.53772 37.3182 7.46997 34.6275 7.46997C29.609 7.46997 25.5089 11.5701 25.5089 16.6313C25.5089 17.3574 25.5943 18.0621 25.7438 18.7241C18.1414 18.3397 11.3718 14.688 6.86589 9.15702C6.07575 10.5024 5.62729 12.0827 5.62729 13.7484C5.62729 16.9303 7.22892 19.7491 9.70611 21.3508C8.1899 21.3508 6.78047 20.9237 5.54187 20.283V20.3471C5.54187 24.7889 8.70242 28.5047 12.888 29.3375C11.5442 29.7053 10.1334 29.7565 8.76649 29.487C9.3465 31.3075 10.4824 32.9004 12.0146 34.0419C13.5468 35.1834 15.3982 35.816 17.3085 35.8508C14.0703 38.4144 10.0563 39.8001 5.92626 39.7802C5.20019 39.7802 4.47412 39.7375 3.74805 39.652C7.80551 42.2574 12.6318 43.7736 17.7997 43.7736C34.6275 43.7736 43.8742 29.8074 43.8742 17.699C43.8742 17.2933 43.8742 16.9089 43.8528 16.5032C45.6467 15.2219 47.1842 13.5989 48.4228 11.741Z" fill="#FFFCF8"/>
</svg>
